<svg xmlns="http://www.w3.org/2000/svg" viewBox="0 0 64 64"><g><circle cx="32" cy="35" r="25" fill="#00F5FDFF"/><path fill="#00DBF3FF" d="M32,18A25,25,0,0,1,56.677,39,25,25,0,1,0,7.323,39,25,25,0,0,1,32,18Z"/><path fill="#fec524" d="M34.99 35.16L40 41l-6.01-3.76A2.956 2.956 0 0 0 34.99 35.16zM26 24l5.83 8.01a2.978 2.978 0 0 0-2.57 1.77z"/><path fill="#2254c4" d="M32 32a3 3 0 0 1 3 3 .86.86 0 0 1-.01.16A3 3 0 0 1 32 38a3 3 0 0 1-3-3 2.934 2.934 0 0 1 .26-1.22 2.978 2.978 0 0 1 2.57-1.77A.97.97 0 0 1 32 32zM36 3V7.29a27.731 27.731 0 0 0-8 0V3a2.006 2.006 0 0 1 2-2h4A2.006 2.006 0 0 1 36 3z"/><path fill="#163780" d="M34,5H30a2.006,2.006,0,0,1-2-2V7.29a27.731,27.731,0,0,1,8,0V3A2.006,2.006,0,0,1,34,5Z"/><path fill="#2862e6" d="M28,7.29a27.731,27.731,0,0,1,8,0,28,28,0,1,1-8,0ZM32,10a24.975,24.975,0,1,0,.05,0Z"/><path fill="#d9414e" d="M47,35h4A18.966,18.966,0,0,1,40.85,51.81l-1.87-3.54A14.983,14.983,0,0,0,47,35Z"/><path fill="#feaf03" d="M51,35H47A15.005,15.005,0,0,0,32,20V16A19.017,19.017,0,0,1,51,35Z"/><path fill="#2c6cfc" d="M32,16v4A15.005,15.005,0,0,0,17,35H13A19.018,19.018,0,0,1,24.52,17.54,18.844,18.844,0,0,1,32,16Z"/><path fill="#3faedc" d="M14.53,42.48A18.976,18.976,0,0,1,13,35h4a14.983,14.983,0,0,0,8.02,13.27l-1.87,3.54A19.043,19.043,0,0,1,14.53,42.48Z"/><path fill="#2862e6" d="M32.495 16.024A.2.2 0 0 0 32.5 16V12a.5.5 0 0 0-1 0v4c0 .009 0 .017 0 .026.166 0 .328-.026.5-.026S32.329 16.02 32.495 16.024zM13.024 34.505A.2.2 0 0 0 13 34.5H9a.5.5 0 0 0 0 1h4c.009 0 .017-.005.025-.005 0-.166-.025-.328-.025-.495S13.02 34.671 13.024 34.505zM55 34.5H51c-.009 0-.017.005-.025.005 0 .166.025.328.025.495s-.019.329-.024.495c.009 0 .016.005.024.005h4a.5.5 0 0 0 0-1zM18.216 48.076l-2.57 2.57a.5.5 0 0 0 .708.708l2.569-2.571.008-.011c-.241-.229-.477-.461-.706-.7zM45.765 21.936c.006 0 .013-.007.019-.012l2.57-2.57a.5.5 0 0 0-.708-.708l-2.569 2.571c-.006.006-.008.014-.014.021.12.113.25.215.367.332S45.651 21.817 45.765 21.936zM18.936 21.236c0-.006-.007-.014-.013-.019l-2.569-2.571a.5.5 0 0 0-.708.708l2.57 2.57c.006.006.015.008.021.014.114-.12.216-.251.333-.368S18.816 21.35 18.936 21.236zM45.077 48.783l2.569 2.571a.5.5 0 0 0 .708-.708l-2.57-2.57-.015-.009c-.228.24-.457.479-.7.708zM14.359 42.018c-.009 0-.018 0-.027 0l-3.53 1.52a.5.5 0 1 0 .4.918l3.48-1.5c.025-.007.039-.032.063-.043-.068-.148-.147-.289-.211-.438S14.419 42.17 14.359 42.018zM49.633 27.983c.008 0 .016 0 .024 0l3.54-1.52a.5.5 0 0 0-.394-.918l-3.54 1.52c-.008 0-.012.009-.019.012.069.151.151.294.216.447S49.572 27.831 49.633 27.983zM24.984 17.367a.1.1 0 0 0-.005-.024l-1.52-3.54a.5.5 0 1 0-.918.394l1.52 3.54c0 .008.011.011.014.018.15-.068.293-.151.445-.215S24.831 17.428 24.984 17.367zM14.576 27.49c-.008 0-.013-.01-.02-.013l-3.58-1.431a.5.5 0 1 0-.372.928l3.581 1.43a.118.118 0 0 0 .02 0c.058-.154.1-.315.165-.468S14.511 27.642 14.576 27.49zM49.435 42.521c.008 0 .013.011.021.014l3.569 1.42a.5.5 0 0 0 .37-.93l-3.51-1.395c-.026-.015-.058-.008-.086-.018-.056.151-.1.308-.159.458S49.5 42.37 49.435 42.521zM39.509 17.575c0-.008.012-.011.015-.019l1.431-3.58a.5.5 0 0 0-.929-.372L38.6 17.185a.118.118 0 0 0 0 .02c.155.058.315.1.468.165S39.357 17.51 39.509 17.575z"/><path fill="#163780" d="M32,9A26,26,0,1,0,58,35,26,26,0,0,0,32,9Zm0,51a25,25,0,0,1,0-50h.05A25,25,0,0,1,32,60Z"/><circle cx="32" cy="35" r="2" fill="#377ffc"/><path fill="#dbf3ff" d="M27.23 27.69L26 26l3 9a2.934 2.934 0 0 1 .26-1.22zM33.99 37.24a2.985 2.985 0 0 1-4.805-1.233A2.945 2.945 0 0 0 29 37a3 3 0 0 0 4.99 2.24L40 43l-3.7-4.317z"/><path fill="#961333" d="M48,35H47a14.983,14.983,0,0,1-8.02,13.27l.468.885A15.99,15.99,0,0,0,48,35Z"/><path fill="#fe9503" d="M32,19v1A15.005,15.005,0,0,1,47,35h1A16,16,0,0,0,32,19Z"/><path fill="#2254c4" d="M16,35h1A15.005,15.005,0,0,1,32,20V19A16,16,0,0,0,16,35Z"/><path fill="#3d83ae" d="M17,35H16a15.99,15.99,0,0,0,8.552,14.155l.468-.885A14.983,14.983,0,0,1,17,35Z"/></g></svg>