<svg xmlns="http://www.w3.org/2000/svg" viewBox="0 0 64 64"><g fill="#3375ff" data-name="Layer 32"><path d="M52.65 25.26a18.93 18.93 0 0 0-8.08-6.69 11.45 11.45 0 0 0-5.66-3 15.34 15.34 0 0 0-26 1.5 10 10 0 0 0-10.67 7.79 6.71 6.71 0 0 0 3.68 11.66 9.44 9.44 0 0 0 2.33-.4 8.17 8.17 0 0 0-1.82 1.12A8 8 0 0 0 14 50.74a12 12 0 0 0 12.35 1 18.92 18.92 0 0 0 20 .78 14 14 0 1 0 6.28-27.25ZM4 29.86a2.71 2.71 0 0 1 1.2-2.24 2 2 0 0 0 .86-1.4 6 6 0 0 1 7.3-5 13.59 13.59 0 0 0-.36 2.37 1 1 0 0 0 .94 1.06H14a1 1 0 0 0 1-.94 14.09 14.09 0 0 1 .86-3.71 11.33 11.33 0 0 1 18.3-3.9 7.85 7.85 0 0 0 1.94 1.14 6.72 6.72 0 0 0-2.06 0 18.85 18.85 0 0 0-14.76 11.9 12.06 12.06 0 0 0-7.76 4.55 5.94 5.94 0 0 1-1.45-.89 2.76 2.76 0 0 0-.56-.34h-.09a2 2 0 0 0-1.65 0 2.68 2.68 0 0 1-1 .22A2.72 2.72 0 0 1 4 29.86ZM50 49a9.78 9.78 0 0 1-1.84-.18 17.07 17.07 0 0 0 2.89-3.26 1 1 0 1 0-1.65-1.13 15.08 15.08 0 0 1-4.4 4.21l-.09.05c-.33.21-.67.4-1 .58a14.9 14.9 0 0 1-16.19-1.51 2 2 0 0 0-2.34-.1 7.82 7.82 0 0 1-5.52 1.23h-.19a8 8 0 0 1-1-.24l-.26-.09a8 8 0 0 1-.91-.37l-.26-.19c-.22-.12-.43-.25-.64-.38l-.31-.2a8 8 0 0 1-2.84-3.79 1 1 0 1 0-1.89.67 9.82 9.82 0 0 0 .86 1.82c.15.25.71 1 .88 1.25A3.62 3.62 0 0 0 12 47a4 4 0 0 1-.11-8H12a4 4 0 0 1 2.4.8 1 1 0 0 0 1.2-1.6 6 6 0 0 0-1.67-.88 8 8 0 0 1 6.34-4.25 17.08 17.08 0 0 0-.27 1.87A1 1 0 0 0 21 36a1 1 0 0 0 1-.94 15 15 0 0 1 .62-3.45c.12-.38.25-.76.4-1.13l.11-.26c.11-.26.22-.52.34-.77s.23-.45.36-.68l.15-.28a15.1 15.1 0 0 1 1.27-1.86 15 15 0 0 1 23.75.43 11.94 11.94 0 0 0-4.47 1.25 1 1 0 0 0 .91 1.78 10 10 0 0 1 6.08-1 9.94 9.94 0 0 1 2.09.56l.34.13A10 10 0 0 1 50 49Z"/><path d="M22.12 37.88a1 1 0 0 0-2 .25 17 17 0 0 0 .4 2.13 1 1 0 0 0 1.94-.5 15.11 15.11 0 0 1-.34-1.88zm19.15-7.12a12.16 12.16 0 0 0-1.09 1.33 1 1 0 0 0 1.63 1.15 10.12 10.12 0 0 1 .91-1.11 1 1 0 1 0-1.45-1.37z"/></g></svg>