<svg xmlns="http://www.w3.org/2000/svg" viewBox="0 0 64 64"><circle cx="32" cy="32" r="26" fill="#FBB03B"/><path fill="#E29E35" d="M55.759 21.443c.154 1.165.241 2.35.241 3.557 0 14.912-12.088 27-27 27-8.506 0-16.088-3.937-21.037-10.083C11.862 51.356 21.153 58 32 58c14.359 0 26-11.641 26-26 0-3.76-.805-7.33-2.241-10.557z"/><path fill="#3EBBDD" d="M60 52h-1v-1a1 1 0 10-2 0v1h-1a1 1 0 100 2h1v1a1 1 0 102 0v-1h1a1 1 0 100-2zM7 55H6v-1a1 1 0 10-2 0v1H3a1 1 0 100 2h1v1a1 1 0 102 0v-1h1a1 1 0 100-2zM53 4h-1V3a1 1 0 10-2 0v1h-1a1 1 0 100 2h1v1a1 1 0 102 0V6h1a1 1 0 100-2zM9 12c-1.654 0-3-1.346-3-3s1.346-3 3-3 3 1.346 3 3-1.346 3-3 3zm0-4a1 1 0 100 2 1 1 0 000-2z"/><path fill="#E6E6E6" d="M58.03 21h-8.06A3.975 3.975 0 0 0 46 24.97V27h-6.03C37.781 27 36 28.781 36 31.03A3.975 3.975 0 0 0 39.97 35h10.06A3.975 3.975 0 0 0 54 31.03V29h4.03c2.188 0 3.97-1.781 3.97-4.03A3.975 3.975 0 0 0 58.03 21zM23.03 45H19v-2.03A3.975 3.975 0 0 0 15.03 39H5.97C3.781 39 2 40.781 2 43.03A3.975 3.975 0 0 0 5.97 47H11v2.03A3.975 3.975 0 0 0 14.97 53h8.061c2.188 0 3.97-1.781 3.97-4.03A3.976 3.976 0 0 0 23.03 45z"/><path fill="#CCC" d="M60 13h2v2h-2zM23 2h2v2h-2zM2 19h2v2H2zM45 60h2v2h-2zM14 56h2v2h-2z"/></svg>