<svg xmlns="http://www.w3.org/2000/svg" viewBox="0 0 64 64"><path fill="#4f83d1" d="M19 31a1 1 0 01-.707-.293l-4-4a1 1 0 011.414-1.414l4 4A1 1 0 0119 31zM15 39a1 1 0 01-.707-1.707l4-4a1 1 0 011.414 1.414l-4 4A1 1 0 0115 39zM45 31a1 1 0 01-.707-1.707l4-4a1 1 0 011.414 1.414l-4 4A1 1 0 0145 31zM49 39a1 1 0 01-.707-.293l-4-4a1 1 0 011.414-1.414l4 4A1 1 0 0149 39zM26 50a1 1 0 01-.707-1.707l4-4a1 1 0 011.414 1.414l-4 4A1 1 0 0126 50zM38 50a1 1 0 01-.707-.293l-4-4a1 1 0 011.414-1.414l4 4A1 1 0 0138 50zM30 20a1 1 0 01-.707-.293l-4-4a1 1 0 011.414-1.414l4 4A1 1 0 0130 20zM34 20a1 1 0 01-.707-1.707l4-4a1 1 0 011.414 1.414l-4 4A1 1 0 0134 20z"/><path fill="#cdeef6" d="M32,3h0a2,2,0,0,1,2,2V32a0,0,0,0,1,0,0H30a0,0,0,0,1,0,0V5a2,2,0,0,1,2-2Z"/><polygon fill="#7cb8eb" points="30 12 24 6 27 3 30 6 30 12"/><polygon fill="#7cb8eb" points="34 12 40 6 37 3 34 6 34 12"/><path fill="#cdeef6" d="M33,34l-3-3L49.5,11.5a2.122,2.122,0,0,1,3,0h0a2.122,2.122,0,0,1,0,3Z"/><polygon fill="#7cb8eb" points="44 17 44 9 48 9 48 13 44 17"/><polygon fill="#7cb8eb" points="47 20 55 20 55 16 51 16 47 20"/><path fill="#cdeef6" d="M34,31l-3,3L11.5,14.5a2.12,2.12,0,0,1,0-3l0,0a2.12,2.12,0,0,1,3,0Z"/><polygon fill="#7cb8eb" points="17 20 9 20 9 16 13 16 17 20"/><polygon fill="#7cb8eb" points="20 17 20 9 16 9 16 13 20 17"/><path fill="#cdeef6" d="M32,32h0a2,2,0,0,1,2,2V61a0,0,0,0,1,0,0H30a0,0,0,0,1,0,0V34A2,2,0,0,1,32,32Z" transform="rotate(180 32 46.5)"/><polygon fill="#7cb8eb" points="34 52 40 58 37 61 34 58 34 52"/><polygon fill="#7cb8eb" points="30 52 24 58 27 61 30 58 30 52"/><path fill="#cdeef6" d="M17.5,17.5h0a2,2,0,0,1,2,2v27a0,0,0,0,1,0,0h-4a0,0,0,0,1,0,0v-27A2,2,0,0,1,17.5,17.5Z" transform="rotate(-90 17.5 32)"/><polygon fill="#7cb8eb" points="12 34 6 40 3 37 6 34 12 34"/><polygon fill="#7cb8eb" points="12 30 6 24 3 27 6 30 12 30"/><path fill="#cdeef6" d="M44.5,17.5h4a0,0,0,0,1,0,0v27a2,2,0,0,1-2,2h0a2,2,0,0,1-2-2v-27A0,0,0,0,1,44.5,17.5Z" transform="rotate(-90 46.5 32)"/><polygon fill="#7cb8eb" points="52 34 58 40 61 37 58 34 52 34"/><polygon fill="#7cb8eb" points="52 30 58 24 61 27 58 30 52 30"/><path fill="#cdeef6" d="M31,30l3,3L14.414,52.586a2,2,0,0,1-2.828,0l-.172-.172a2,2,0,0,1,0-2.828Z"/><polygon fill="#7cb8eb" points="20 47 20 55 16 55 16 51 20 47"/><polygon fill="#7cb8eb" points="17 44 9 44 9 48 13 48 17 44"/><path fill="#cdeef6" d="M30,33l3-3L52.5,49.5a2.12,2.12,0,0,1,0,3l0,0a2.12,2.12,0,0,1-3,0Z"/><polygon fill="#7cb8eb" points="47 44 55 44 55 48 51 48 47 44"/><polygon fill="#7cb8eb" points="44 47 44 55 48 55 48 51 44 47"/><circle cx="32" cy="32" r="6" fill="#fff"/><path fill="#4f83d1" d="M61.707,26.293l-3-3a1,1,0,0,0-1.414,0L51.586,29H47.414l2.293-2.293a1,1,0,0,0-1.414-1.414L44.586,29H39.414l8-8H55a1,1,0,0,0,1-1V16a1,1,0,0,0-1-1H53.377A3.1,3.1,0,0,0,49,10.624V9a1,1,0,0,0-1-1H44a1,1,0,0,0-1,1v7.586l-8,8V19.414l3.707-3.707a1,1,0,0,0-1.414-1.414L35,16.586V12.414l5.707-5.707a1,1,0,0,0,0-1.414l-3-3a1,1,0,0,0-1.414,0L34.76,3.826a3,3,0,0,0-5.52,0L27.707,2.293a1,1,0,0,0-1.414,0l-3,3a1,1,0,0,0,0,1.414L29,12.414v4.172l-2.293-2.293a1,1,0,0,0-1.414,1.414L29,19.414v5.172l-8-8V9a1,1,0,0,0-1-1H16a1,1,0,0,0-1,1v1.625a3.189,3.189,0,0,0-4.208.169A3.114,3.114,0,0,0,10.624,15H9a1,1,0,0,0-1,1v4a1,1,0,0,0,1,1h7.586l8,8H19.414l-3.707-3.707a1,1,0,0,0-1.414,1.414L16.586,29H12.414L6.707,23.293a1,1,0,0,0-1.414,0l-3,3a1,1,0,0,0,0,1.414L3.826,29.24a3,3,0,0,0,0,5.52L2.293,36.293a1,1,0,0,0,0,1.414l3,3a1,1,0,0,0,1.414,0L12.414,35h4.172l-2.293,2.293a1,1,0,1,0,1.414,1.414L19.414,35h5.172l-8,8H9a1,1,0,0,0-1,1v4a1,1,0,0,0,1,1h1.608a3,3,0,0,0,.1,4.121l.171.172a2.98,2.98,0,0,0,4.122.1V55a1,1,0,0,0,1,1h4a1,1,0,0,0,1-1V47.414l8-8v5.172l-3.707,3.707a1,1,0,1,0,1.414,1.414L29,47.414v4.172l-5.707,5.707a1,1,0,0,0,0,1.414l3,3a1,1,0,0,0,1.414,0l1.533-1.533a3,3,0,0,0,5.52,0l1.533,1.533a1,1,0,0,0,1.414,0l3-3a1,1,0,0,0,0-1.414L35,51.586V47.414l2.293,2.293a1,1,0,0,0,1.414-1.414L35,44.586V39.414l8,8V55a1,1,0,0,0,1,1h4a1,1,0,0,0,1-1V53.378A3.105,3.105,0,0,0,53.376,49H55a1,1,0,0,0,1-1V44a1,1,0,0,0-1-1H47.414l-8-8h5.172l3.707,3.707a1,1,0,0,0,1.414-1.414L47.414,35h4.172l5.707,5.707a1,1,0,0,0,1.414,0l3-3a1,1,0,0,0,0-1.414L60.174,34.76a3,3,0,0,0,0-5.52l1.533-1.533A1,1,0,0,0,61.707,26.293ZM58,25.414,59.586,27l-2,2H54.414ZM38.92,33a6.29,6.29,0,0,0,0-2H59a1,1,0,0,1,0,2ZM32,37a5,5,0,1,1,5-5A5.006,5.006,0,0,1,32,37ZM5,33a1,1,0,0,1,0-2H25.08a6.29,6.29,0,0,0,0,2ZM54,19H49.414l2-2H54Zm-2.207-6.793a1.12,1.12,0,0,1,0,1.586L37.672,27.914a7.061,7.061,0,0,0-1.586-1.586L50.207,12.207A1.125,1.125,0,0,1,51.793,12.207ZM45,10h2v2.586l-2,2ZM37,4.414,38.586,6,35,9.586V6.414ZM31,5a1,1,0,0,1,2,0V25.08a6.29,6.29,0,0,0-2,0ZM25.414,6,27,4.414l2,2V9.586ZM19,10v4.586l-2-2V10Zm-6.792,2.206a1.145,1.145,0,0,1,1.584,0L27.914,26.328a7.061,7.061,0,0,0-1.586,1.586L12.207,13.792A1.122,1.122,0,0,1,12.208,12.206ZM10,19V17h2.586l2,2ZM6,25.414,9.586,29H6.414l-2-2ZM6,38.586,4.414,37l2-2H9.586ZM10,45h4.586l-2,2H10Zm2.293,6.879-.171-.172a1,1,0,0,1,0-1.414L26.328,36.086a7.061,7.061,0,0,0,1.586,1.586L13.707,51.879A1.021,1.021,0,0,1,12.293,51.879ZM19,54H17V51.414l2-2Zm8,5.586L25.414,58,29,54.414v3.172ZM33,59a1,1,0,0,1-2,0V38.92a6.29,6.29,0,0,0,2,0Zm5.586-1L37,59.586l-2-2V54.414ZM45,54V49.414l2,2V54Zm6.792-2.206a1.145,1.145,0,0,1-1.584,0L36.086,37.672a7.061,7.061,0,0,0,1.586-1.586L51.793,50.208A1.122,1.122,0,0,1,51.792,51.794ZM54,45v2H51.414l-2-2Zm4-6.414L54.414,35h3.172l2,2Z"/></svg>