<svg xmlns="http://www.w3.org/2000/svg" viewBox="0 0 24 24"><path fill="#00AAFF" d="M15 24c-4.962 0-9-4.037-9-9C6 8.046 14.311.45 14.665.13a.499.499 0 0 1 .67 0C15.69.45 24 8.046 24 15c0 4.963-4.038 9-9 9z"/><path fill="#00FFFFFF" d="M15 1.188C13.443 2.688 7 9.248 7 15c0 4.411 3.589 8 8 8s8-3.589 8-8c0-5.756-6.442-12.312-8-13.812z"/><path d="M15 1.188l-.007.007C17.022 3.879 19 7.31 19 10.5c0 4.411-3.589 8-8 8a7.938 7.938 0 0 1-3.533-.833C8.568 20.769 11.525 23 15 23c4.411 0 8-3.589 8-8 0-5.756-6.442-12.312-8-13.812z" opacity=".1"/><path fill="#078EFA" d="M9.124 12c-.876 0-1.347-.327-1.724-.59-.33-.229-.59-.41-1.153-.41-.562 0-.822.181-1.152.41-.377.263-.847.59-1.723.59-.875 0-1.345-.327-1.722-.59-.329-.229-.589-.41-1.15-.41a.5.5 0 110-1c.875 0 1.345.327 1.722.59.329.229.589.41 1.15.41.562 0 .822-.181 1.152-.41.377-.263.847-.59 1.723-.59.876 0 1.346.327 1.724.59.33.229.59.41 1.153.41.562 0 .822-.181 1.152-.41.378-.263.848-.59 1.724-.59a.5.5 0 110 1c-.563 0-.823.181-1.153.41-.378.263-.848.59-1.723.59zM9.124 21c-.876 0-1.347-.327-1.724-.59-.33-.229-.59-.41-1.153-.41-.562 0-.822.181-1.152.41-.377.263-.847.59-1.723.59-.875 0-1.345-.327-1.722-.59-.329-.229-.589-.41-1.15-.41a.5.5 0 110-1c.875 0 1.345.327 1.722.59.329.229.589.41 1.15.41.562 0 .822-.181 1.152-.41.377-.263.847-.59 1.723-.59.876 0 1.346.327 1.724.59.33.229.59.41 1.153.41.562 0 .822-.181 1.152-.41.378-.263.848-.59 1.724-.59a.5.5 0 110 1c-.563 0-.823.181-1.153.41-.378.263-.848.59-1.723.59zM3.372 18c-.875 0-1.345-.327-1.722-.59-.329-.229-.589-.41-1.15-.41a.5.5 0 110-1c.875 0 1.345.327 1.722.59.329.229.589.41 1.15.41a.5.5 0 110 1zM15 18c-.864 0-1.345-.307-1.77-.578-.367-.236-.658-.422-1.23-.422-.563 0-.823.181-1.153.41-.378.263-.848.59-1.723.59-.876 0-1.347-.327-1.725-.59-.33-.229-.59-.41-1.152-.41a.5.5 0 110-1c.876 0 1.346.327 1.723.59.33.229.591.41 1.154.41.562 0 .822-.181 1.152-.41.378-.263.848-.59 1.724-.59.864 0 1.345.308 1.77.579.367.235.658.421 1.23.421a.5.5 0 110 1zM3.372 15c-.875 0-1.345-.327-1.722-.59-.329-.229-.589-.41-1.15-.41a.5.5 0 110-1c.875 0 1.345.327 1.722.59.329.229.589.41 1.15.41.562 0 .822-.181 1.152-.41.377-.263.847-.59 1.723-.59a.5.5 0 110 1c-.562 0-.822.181-1.152.41-.377.263-.847.59-1.723.59zM14.872 15c-.875 0-1.345-.327-1.722-.59-.329-.229-.589-.41-1.15-.41-.563 0-.823.181-1.153.41-.378.263-.848.59-1.723.59a.5.5 0 110-1c.562 0 .822-.181 1.152-.41.378-.263.848-.59 1.724-.59.875 0 1.345.327 1.722.59.329.229.589.41 1.15.41.562 0 .822-.181 1.152-.41.377-.263.847-.59 1.723-.59a.5.5 0 110 1c-.562 0-.822.181-1.152.41-.377.263-.847.59-1.723.59z"/><linearGradient id="a" x1="1.533" x2="23.776" y1="7.101" y2="17.473" gradientUnits="userSpaceOnUse"><stop offset="0" stop-color="#00FFFFFF" stop-opacity=".2"/><stop offset="1" stop-color="#FFF" stop-opacity="0"/></linearGradient><path fill="url(#a)" d="M.5 17c.561 0 .821.181 1.15.41.377.263.847.59 1.722.59a.5.5 0 1 0 0-1c-.561 0-.821-.181-1.15-.41C1.845 16.327 1.375 16 .5 16a.5.5 0 1 0 0 1zM15.335.13a.499.499 0 0 0-.67 0c-.272.245-5.223 4.782-7.513 10.023A2.649 2.649 0 0 0 6.247 10c-.876 0-1.346.327-1.723.59-.33.229-.59.41-1.152.41-.561 0-.821-.181-1.15-.41C1.845 10.327 1.375 10 .5 10a.5.5 0 1 0 0 1c.561 0 .821.181 1.15.41.377.263.847.59 1.722.59.876 0 1.346-.327 1.723-.59.33-.229.59-.41 1.152-.41.212 0 .374.032.52.077-.233.636-.403 1.28-.535 1.924-.865.004-1.333.327-1.708.588-.33.23-.59.411-1.152.411-.561 0-.821-.181-1.15-.41C1.845 13.327 1.375 13 .5 13a.5.5 0 1 0 0 1c.561 0 .821.181 1.15.41.377.263.847.59 1.722.59.876 0 1.346-.327 1.723-.59.29-.202.54-.358.975-.395-.035.33-.07.658-.07.985 0 .351.025.696.065 1.037a.498.498 0 0 0 .166.96c.17.742.43 1.45.77 2.11A2.71 2.71 0 0 0 6.247 19c-.876 0-1.346.327-1.723.59-.33.229-.59.41-1.152.41-.561 0-.821-.181-1.15-.41C1.845 19.327 1.375 19 .5 19a.5.5 0 1 0 0 1c.561 0 .821.181 1.15.41.377.263.847.59 1.722.59.876 0 1.346-.327 1.723-.59.33-.229.59-.41 1.152-.41.562 0 .823.181 1.153.41.205.143.445.3.755.418A8.978 8.978 0 0 0 15 24c4.962 0 9-4.037 9-9C24 8.046 15.689.45 15.335.13z"/></svg>