<svg xmlns="http://www.w3.org/2000/svg" data-name="Layer 50" viewBox="0 0 64 64"><path fill="#3375ff" d="M54.49 35.37A4.25 4.25 0 0 0 56 32.22c0-1.16-.52-2.61-2.48-3.93 2.67-1.62 3.35-3.4 3.35-4.79a5 5 0 0 0-2-3.84A5.45 5.45 0 0 0 57 15.5C57 9.26 44.42 6 32 6S7 9.26 7 15.5c0 1.9 1.16 4.5 6.27 6.5a4.21 4.21 0 0 0-.27 1.5c0 2.81 2.67 5.1 7.62 6.63a3.88 3.88 0 0 0-.62 2.09c0 2.41 2.19 4.36 6.23 5.64a3.5 3.5 0 0 0-.23 1.26c0 1.23.61 2.76 3 4a3.3 3.3 0 0 0-.79 2.13 3.23 3.23 0 0 0 .48 1.75c-1.62.78-2.49 1.88-2.49 3.21a2.88 2.88 0 0 0 .24 1.17A3.22 3.22 0 0 0 25 54c0 2.36 2.71 4 6.6 4 3.54 0 6.1-1.36 6.54-3.39 3.72-.34 7.27-1.59 7.39-4.25 4.13-.64 7.67-2.2 7.67-5.07a3.21 3.21 0 0 0-.41-1.58C55.53 42.59 57 41 57 39.12c0-1.12-.52-2.52-2.51-3.75ZM17 23.5c0-.09.13-.42.74-.9a2 2 0 0 0 .63-.86 46.88 46.88 0 0 0 8 1.36h.09a1 1 0 0 0 .09-2 52.88 52.88 0 0 1-9.45-2c-4.45-1.3-6.1-2.9-6.1-3.6 0-1.94 8-5.5 21-5.5s21 3.56 21 5.5c0 .39-.59 1.33-2.8 2.39a2 2 0 0 0 0 3.63A7.12 7.12 0 0 1 52.53 23a1.37 1.37 0 0 0 0 .18c0 .67-.67 1.42-1.92 2.16a16.78 16.78 0 0 1-3.42 1.41 28.82 28.82 0 0 1-3.51.79 1 1 0 0 0 .16 2H44c.91-.15 1.76-.33 2.56-.52a2 2 0 0 0 1.32 1.22c2.83.8 3.86 1.68 4.07 2a5.9 5.9 0 0 1-2.73 1.59 2 2 0 0 0 .18 3.81 10.77 10.77 0 0 1 3.06 1.21c-.05.41-.73 1-2 1.47a22.9 22.9 0 0 1-2.83.77 34.59 34.59 0 0 1-6.17.63 34.74 34.74 0 0 1-7.12-.81c-.63-.15-1.33-.39-1.8-.55-1.3-.52-2-1.08-2.06-1.49a5.51 5.51 0 0 1 .52-.3 2 2 0 0 0 1-1.18c1.21.18 2.47.3 3.73.37h.05a1 1 0 0 0 0-2 34.89 34.89 0 0 1-4.45-.5 25.63 25.63 0 0 1-5.19-1.65c-1-.55-1.62-1.13-1.62-1.6a.68.68 0 0 1 0-.31 7.47 7.47 0 0 1 1.38-.7 2 2 0 0 0-.45-3.79C19.08 26 17 24 17 23.5Zm24.85 23.19a2 2 0 0 0-1.32 3.44 16.65 16.65 0 0 1-4.67.59h-.72a2 2 0 0 0-2 1.5 2 2 0 0 0 .26 1.59 7.54 7.54 0 0 1-1.8.2h-.48a2 2 0 0 0 .36-3.76 14.39 14.39 0 0 1 2.36-.41 2 2 0 0 0 .37-3.91 8.31 8.31 0 0 1-1.56-.61 8.57 8.57 0 0 1 1.67-.65 2 2 0 0 0 1.38-1.44 34.29 34.29 0 0 0 5.8.48 35.29 35.29 0 0 0 4.82-.32 2 2 0 0 0 1.3 1.45 7.21 7.21 0 0 1 1.14.48 17.4 17.4 0 0 1-6.91 1.37Z"/><path fill="#3375ff" d="M40.69 29.9h.08l1-.09a1 1 0 1 0-.21-2l-.92.09a1 1 0 0 0 .08 2zm.85 5.72q-.78.07-1.6.11a1 1 0 0 0 0 2H40q.86 0 1.68-.12a1 1 0 0 0 .9-1.09 1 1 0 0 0-1.04-.9zm3.66 1.48h.2l.69-.15a1 1 0 1 0-.44-1.95l-.64.14a1 1 0 0 0 .2 2zM28.71 22.27a1 1 0 0 0 1 1h1.35a1 1 0 0 0 0-2h-1.31a1 1 0 0 0-1.04 1zm7.29.95h.06q1.41-.09 2.76-.24a1 1 0 0 0-.22-2c-.86.09-1.75.17-2.66.23a1 1 0 0 0 .06 2zm7.63-3.04-1 .2a1 1 0 0 0 .19 2h.19l1-.21a1 1 0 1 0-.44-2zm-2.78-1.45a1 1 0 0 0-.33-2l-.83.13a1 1 0 0 0 .14 2H40z"/><path fill="#3375ff" d="M37.31 13.85c4.8.42 6.83 1.23 7.42 1.65a6.78 6.78 0 0 1-2.12.83 1 1 0 0 0 .25 2 1 1 0 0 0 .25 0c1.61-.42 3.76-1.16 3.76-2.76 0-1.87-3.16-3.1-9.39-3.65a1 1 0 0 0-.17 2zm-4.63-.22h1.11a1 1 0 0 0 0-2h-1.14a1 1 0 0 0 0 2zm-4.79.12 1.52-.08a1 1 0 0 0 1-1 1 1 0 0 0-1-1l-1.57.08a1 1 0 0 0 .06 2z"/></svg>