<svg xmlns="http://www.w3.org/2000/svg" viewBox="0 0 512 512"><circle cx="256" cy="256" r="256" fill="#273554"/><path d="M510.405 284.564l-151.35-151.35 19.742 61.771-53.133 78.271-89.333 38.007-42.974-7.649-41.544 44.133-61.495 24.324 138.493 138.493A259.221 259.221 0 0 0 256 512c131.729 0 240.198-99.497 254.405-227.436z" opacity=".1"/><path fill="#FFF" d="M428.399 165.736c-7.591 3.812-16.834.748-20.646-6.843 3.812 7.591.748 16.834-6.843 20.646 7.591-3.812 16.834-.748 20.646 6.843-3.811-7.591-.747-16.835 6.843-20.646zM200.363 442.961c-9.352-4.897-12.963-16.449-8.065-25.801-4.898 9.352-16.449 12.963-25.801 8.065 9.352 4.897 12.963 16.448 8.065 25.801 4.898-9.352 16.45-12.963 25.801-8.065zM224.282 93.427a9.681 9.681 0 01-13.329-3.126 9.681 9.681 0 01-3.126 13.329 9.681 9.681 0 0113.329 3.126c-2.817-4.545-1.418-10.512 3.126-13.329zM151.813 213.502a7.159 7.159 0 01-9.856-2.312 7.158 7.158 0 01-2.312 9.856 7.159 7.159 0 019.856 2.312 7.157 7.157 0 012.312-9.856zM434.483 275.566a7.158 7.158 0 01-9.856-2.312 7.158 7.158 0 01-2.312 9.856 7.157 7.157 0 019.856 2.312 7.159 7.159 0 012.312-9.856zM115.345 282.465c-4.543 2.817-10.511 1.418-13.328-3.126 2.817 4.544 1.417 10.511-3.126 13.328 4.543-2.817 10.511-1.418 13.328 3.126-2.818-4.544-1.418-10.511 3.126-13.328zM422.883 320.758c-4.544 2.817-10.512 1.418-13.329-3.126 2.817 4.544 1.418 10.511-3.126 13.328 4.544-2.817 10.512-1.418 13.329 3.126-2.818-4.544-1.418-10.511 3.126-13.328z"/><g><path fill="#D1F4FF" d="M359.054 133.214c2.314 22.482-.955 45.851-10.636 68.043-29.974 68.711-109.973 100.114-178.684 70.141-14.122-6.16-26.663-14.437-37.424-24.291 4.85 47.125 34.259 90.347 80.778 110.639 68.71 29.974 148.71-1.43 178.683-70.141 23.813-54.588 8.881-116.299-32.717-154.391z"/><circle cx="260.813" cy="314.118" r="17.571" fill="#A6CDDD"/><path d="M270.002 303.926a17.49 17.49 0 0 1 8.126 7.211c-.975-5.626-4.664-10.671-10.29-13.124-8.895-3.88-19.25.185-23.13 9.079-2.336 5.355-1.789 11.237.955 15.92a17.487 17.487 0 0 1 1.209-10.006c3.879-8.896 14.235-12.96 23.13-9.08z" opacity=".1"/><circle cx="375.327" cy="241.761" r="10.056" fill="#A6CDDD"/><path d="M380.586 235.928a10.006 10.006 0 0 1 4.65 4.127 10.046 10.046 0 0 0-5.889-7.511c-5.091-2.221-11.018.106-13.238 5.197a10.044 10.044 0 0 0 .546 9.111 10.019 10.019 0 0 1 .692-5.727c2.221-5.091 8.148-7.417 13.239-5.197z" opacity=".1"/><ellipse cx="360.805" cy="317.397" fill="#A6CDDD" rx="3.894" ry="7.173" transform="rotate(41.746 360.803 317.362)"/><path d="M365.062 314.073c.639.57.89 1.478.795 2.549.776-1.916.739-3.672-.275-4.577-1.605-1.433-5.044-.197-7.682 2.76-1.588 1.779-2.522 3.776-2.665 5.396.451-1.113 1.176-2.281 2.146-3.368 2.637-2.956 6.076-4.191 7.681-2.76z" opacity=".1"/><circle cx="378.796" cy="185.155" r="5.282" fill="#A6CDDD"/><path d="M381.559 182.091a5.252 5.252 0 0 1 2.442 2.168 5.281 5.281 0 1 0-9.759 3.569 5.283 5.283 0 0 1 7.317-5.737z" opacity=".1"/><circle cx="191.696" cy="312.567" r="5.282" fill="#A6CDDD"/><path d="M194.458 309.503a5.257 5.257 0 0 1 2.442 2.168 5.282 5.282 0 1 0-9.759 3.569 5.284 5.284 0 0 1 7.317-5.737z" opacity=".1"/><ellipse cx="296.772" cy="353.465" fill="#A6CDDD" rx="5.569" ry="6.543" transform="rotate(67.736 296.756 353.452)"/><path d="M301.779 352.904c.464 1.133.462 2.356.082 3.505 1.266-1.595 1.702-3.622.966-5.423-1.165-2.846-4.821-4.044-8.165-2.675-2.014.823-3.453 2.391-4.027 4.128a7.348 7.348 0 012.979-2.211c3.345-1.368 7-.169 8.165 2.676zM309.3 362.419c35.622-11.589 66.315-37.776 82.472-74.813 23.813-54.59 8.881-116.301-32.718-154.393 0 .001 52.117 122.787-49.754 229.206z" opacity=".1"/></g><path fill="#FFF" d="M277.4 325.874c-8.834 0-16.864 3.427-22.848 9.015a33.081 33.081 0 0 0-17.147-4.763c-2.331 0-4.605.243-6.801.699-9.313-16.841-27.25-28.25-47.858-28.25-22.839 0-42.397 14.013-50.57 33.906a33.265 33.265 0 0 0-8.818-1.192c-18.353 0-33.231 14.878-33.231 33.23 0 1.2.067 2.383.191 3.55h218.075a33.38 33.38 0 0 0 2.501-12.703c-.001-18.497-14.997-33.492-33.494-33.492z"/></svg>