<svg xmlns="http://www.w3.org/2000/svg" viewBox="0 0 64 64"><g data-name="Layer 47"><path fill="#3375ff" d="M19.73 49.86a1 1 0 0 0-1.37.37l-1.73 3a1 1 0 0 0 1.73 1l1.73-3a1 1 0 0 0-.36-1.37ZM38.35 46.59a1 1 0 0 0 .5.13 1 1 0 0 0 .87-.5l1.58-2.74a1 1 0 0 0-1.73-1L38 45.22a1 1 0 0 0 .35 1.37ZM37.5 48.06a1 1 0 0 0-1.37.37l-4.5 7.79a1 1 0 0 0 1.73 1l4.5-7.79a1 1 0 0 0-.36-1.37ZM8.34 40.13A1 1 0 0 0 7 40.5l-1.59 2.72a1 1 0 0 0 1.73 1l1.57-2.72a1 1 0 0 0-.37-1.37ZM56 41.86a1 1 0 0 0-1.37.37l-1.73 3a1 1 0 0 0 1.73 1l1.73-3a1 1 0 0 0-.36-1.37ZM52.58 47.86a1 1 0 0 0-1.37.37l-.58 1a1 1 0 1 0 1.73 1l.58-1a1 1 0 0 0-.36-1.37Z"/><path fill="#3375ff" d="M50.65 12.26a19 19 0 0 0-33.37 3.87 12.06 12.06 0 0 0-8.75 6A8 8 0 1 0 12 37.74a12 12 0 0 0 12.35 1l.47.29-3.7 6.4a1 1 0 0 0 1.73 1L26.57 40A18.64 18.64 0 0 0 31 41.57V42h-1a1 1 0 0 0 0 2h1v1a1 1 0 0 0 2 0v-1h1a1 1 0 0 0 0-2s-.25 0 .12 0H35a18.91 18.91 0 0 0 9.37-2.49A13.86 13.86 0 0 0 48 40a14 14 0 0 0 2.65-27.74ZM48 36a9.78 9.78 0 0 1-1.84-.18 17.1 17.1 0 0 0 2.89-3.25 1 1 0 1 0-1.65-1.13 15.07 15.07 0 0 1-4.4 4.21h-.07c-.34.21-.68.41-1 .59a14.9 14.9 0 0 1-16.18-1.51 2 2 0 0 0-2.34-.1 7.82 7.82 0 0 1-5.52 1.23h-.2a8 8 0 0 1-1-.24l-.27-.09a8 8 0 0 1-.91-.37l-.28-.16c-.22-.12-.43-.24-.63-.38l-.31-.21a8 8 0 0 1-2.84-3.79 1 1 0 0 0-1.89.67 11 11 0 0 0 2.2 3.44A6.19 6.19 0 0 0 10 34a4 4 0 0 1-.11-8H10a4 4 0 0 1 2.4.8 1 1 0 1 0 1.2-1.6 6 6 0 0 0-1.67-.88 8 8 0 0 1 6.34-4.25 17.09 17.09 0 0 0-.27 1.87A1 1 0 0 0 19 23a1 1 0 0 0 1-.94 15 15 0 0 1 .62-3.45c.12-.39.25-.77.4-1.14l.08-.2c.12-.28.24-.56.37-.83s.22-.43.33-.64l.18-.32a15.09 15.09 0 0 1 1.27-1.85 15 15 0 0 1 23.75.43 11.93 11.93 0 0 0-4.47 1.25 1 1 0 1 0 .91 1.78 10 10 0 0 1 6.06-1 9.94 9.94 0 0 1 2.11.56l.33.13A10 10 0 0 1 48 36Z"/><path fill="#3375ff" d="M20.12 24.88a1 1 0 1 0-2 .25 17 17 0 0 0 .4 2.13 1 1 0 0 0 1.94-.5 14.86 14.86 0 0 1-.34-1.88ZM39.27 17.76a12 12 0 0 0-1.09 1.33 1 1 0 1 0 1.63 1.15 10.11 10.11 0 0 1 .91-1.11 1 1 0 0 0-1.46-1.37ZM14 49h-1v-1a1 1 0 0 0-2 0v1h-1a1 1 0 0 0 0 2h1v1a1 1 0 0 0 2 0v-1h1a1 1 0 0 0 0-2ZM17 45v-1h1a1 1 0 0 0 0-2h-1v-1a1 1 0 0 0-2 0v1h-1a1 1 0 0 0 0 2h1v1a1 1 0 0 0 2 0ZM26 56h-1v-1a1 1 0 0 0-2 0v1h-1a1 1 0 0 0 0 2h1v1a1 1 0 0 0 2 0v-1h1a1 1 0 0 0 0-2ZM30 49h-1v-1a1 1 0 0 0-2 0v1h-1a1 1 0 0 0 0 2h1v1a1 1 0 0 0 2 0v-1h1a1 1 0 0 0 0-2ZM42 56h-1v-1a1 1 0 0 0-2 0v1h-1a1 1 0 0 0 0 2h1v1a1 1 0 0 0 2 0v-1h1a1 1 0 0 0 0-2ZM46 49h-1v-1a1 1 0 0 0-2 0v1h-1a1 1 0 0 0 0 2h1v1a1 1 0 0 0 2 0v-1h1a1 1 0 0 0 0-2ZM47 41v1h-1a1 1 0 0 0 0 2h1v1a1 1 0 0 0 2 0v-1h1a1 1 0 0 0 0-2h-1v-1a1 1 0 0 0-2 0Z"/></g></svg>