<svg xmlns="http://www.w3.org/2000/svg" viewBox="0 0 64 64"><g data-name="Layer 45"><path fill="#3375ff" d="M50.65 12.26a19 19 0 0 0-33.37 3.87 12.06 12.06 0 0 0-8.75 6A8 8 0 1 0 12 37.74a12 12 0 0 0 12.35 1A18.84 18.84 0 0 0 28.81 41a3 3 0 0 0-.41.54 3 3 0 1 0 5.4.46H36.19a3 3 0 1 0 5-1 19 19 0 0 0 3.19-1.44 14 14 0 1 0 6.28-27.25ZM32.08 43.63a1.25 1.25 0 1 1-.46-1.71 1.24 1.24 0 0 1 .46 1.71Zm8 0a1.29 1.29 0 0 1-2.37-.31 1.29 1.29 0 0 1 1.89-1.45 1.29 1.29 0 0 1 .52 1.78ZM48 36a9.78 9.78 0 0 1-1.84-.18 17.07 17.07 0 0 0 2.89-3.26 1 1 0 1 0-1.65-1.13 15.08 15.08 0 0 1-4.4 4.21l-.09.05c-.33.21-.67.4-1 .58a14.9 14.9 0 0 1-16.19-1.51 2 2 0 0 0-2.34-.1 7.82 7.82 0 0 1-5.52 1.23h-.19a8 8 0 0 1-1-.24l-.26-.09a8 8 0 0 1-.91-.37l-.26-.19c-.22-.12-.43-.25-.64-.38l-.31-.2a8 8 0 0 1-2.84-3.79 1 1 0 0 0-1.89.67 16.69 16.69 0 0 0 1.79 3.29A3.29 3.29 0 0 0 10 34a4 4 0 0 1-.11-8H10a4 4 0 0 1 2.4.8 1 1 0 0 0 1.2-1.6 6 6 0 0 0-1.67-.88 8 8 0 0 1 6.34-4.25 17.08 17.08 0 0 0-.27 1.87A1 1 0 0 0 19 23a1 1 0 0 0 1-.94 15 15 0 0 1 .62-3.45c.12-.38.25-.76.4-1.13l.11-.26c.11-.26.22-.52.34-.77s.23-.45.36-.68l.15-.28a15.1 15.1 0 0 1 1.27-1.86 15 15 0 0 1 23.75.43 11.93 11.93 0 0 0-4.47 1.24 1 1 0 0 0 .91 1.78 10 10 0 0 1 6.07-1 9.94 9.94 0 0 1 2.11.56l.33.13A10 10 0 0 1 48 36Z"/><path fill="#3375ff" d="M20.12 24.88a1 1 0 1 0-2 .25 16.92 16.92 0 0 0 .4 2.13 1 1 0 1 0 1.94-.5 15 15 0 0 1-.34-1.88ZM39.27 17.76a12.16 12.16 0 0 0-1.09 1.33 1 1 0 0 0 1.63 1.15 10.12 10.12 0 0 1 .91-1.11 1 1 0 1 0-1.45-1.37ZM16.5 54.26a3 3 0 1 0 1.1 4.1 3 3 0 0 0-1.1-4.1Zm-.5 3.2a1.21 1.21 0 1 1-1-1.81 1.2 1.2 0 0 1 .6.16 1.21 1.21 0 0 1 .4 1.65ZM20.5 47.33a3 3 0 1 0 1.1 4.1 3 3 0 0 0-1.1-4.1Zm-.38 3.24A1.29 1.29 0 1 1 19 48.64a1.28 1.28 0 0 1 .64.17 1.29 1.29 0 0 1 .48 1.76ZM25.6 44.5A3 3 0 1 0 23 46a3 3 0 0 0 2.6-1.5Zm-1.48-.85a1.29 1.29 0 1 1-.47-1.77 1.29 1.29 0 0 1 .47 1.77ZM13.6 51.43a3 3 0 1 0-5.2-3 3 3 0 0 0 5.2 3Zm-1.48-.85a1.29 1.29 0 1 1-.47-1.76 1.29 1.29 0 0 1 .47 1.75ZM13.5 45.6a3 3 0 1 0-1.1-4.1 3 3 0 0 0 1.1 4.1Zm.42-3.22a1.25 1.25 0 1 1 .46 1.71 1.25 1.25 0 0 1-.46-1.71ZM29.6 51.43a3 3 0 1 0-5.2-3 3 3 0 0 0 5.2 3Zm-1.48-.85a1.29 1.29 0 1 1-.47-1.76 1.29 1.29 0 0 1 .47 1.75ZM32.5 54.26a3 3 0 1 0 1.1 4.1 3 3 0 0 0-1.1-4.1Zm-.5 3.18a1.17 1.17 0 0 1-2.14-.28 1.17 1.17 0 1 1 2.14.28ZM36.5 47.33a3 3 0 1 0 1.1 4.1 3 3 0 0 0-1.1-4.1Zm-.38 3.24A1.29 1.29 0 1 1 35 48.64a1.28 1.28 0 0 1 .64.17 1.29 1.29 0 0 1 .48 1.76ZM44.5 47.33a3 3 0 0 0-4.1 1.1 3 3 0 1 0 4.1-1.1Zm-.42 3.22a1.25 1.25 0 1 1-.46-1.71 1.25 1.25 0 0 1 .46 1.71ZM48.5 40.4a3 3 0 0 0-4.1 1.1 3 3 0 1 0 4.1-1.1Zm-.38 3.24a1.29 1.29 0 1 1-.47-1.77 1.28 1.28 0 0 1 .47 1.78Z"/></g></svg>