<svg xmlns="http://www.w3.org/2000/svg" viewBox="0 0 64 64"><g fill="#3375ff" data-name="01 Sun day star sol weather forecast"><path d="M12 32a1 1 0 0 0-1-1H2a1 1 0 0 0 0 2h9a1 1 0 0 0 1-1zm50-1h-9a1 1 0 0 0 0 2h9a1 1 0 0 0 0-2zM32 12a1 1 0 0 0 1-1V2a1 1 0 0 0-2 0v9a1 1 0 0 0 1 1zm0 40a1 1 0 0 0-1 1v9a1 1 0 0 0 2 0v-9a1 1 0 0 0-1-1zm-15.56-5.86-5 5a1 1 0 1 0 1.41 1.41l5-5a1 1 0 0 0-1.41-1.41zm30.41-27.99a1 1 0 0 0 .71-.29l4.21-4.21a1 1 0 0 0-1.41-1.41l-4.21 4.21a1 1 0 0 0 .71 1.71zm-30.41-.29a1 1 0 0 0 1.41-1.41L14.4 13a1 1 0 0 0-1.4 1.4zm31.12 28.28a1 1 0 0 0-1.41 1.41l3.28 3.28a1 1 0 0 0 1.41-1.41zM4.39 42.08l-.58.23a1 1 0 1 0 .75 1.85l.58-.23a1 1 0 1 0-.75-1.85zm9.07-2.59a1 1 0 0 0-1.3-.55L8 40.62a1 1 0 1 0 .75 1.85l4.16-1.68a1 1 0 0 0 .55-1.3zm37.08-14.98a1 1 0 0 0 1.3.55l1.46-.59a1 1 0 0 0-.75-1.85l-1.46.59a1 1 0 0 0-.55 1.3zm5.08-1.05a1 1 0 0 0 .37-.07l4.2-1.7a1 1 0 0 0-.75-1.85l-4.2 1.7a1 1 0 0 0 .38 1.93zM22.63 11.48l.57 1.42a1 1 0 0 0 1.85-.75l-.57-1.42a1 1 0 1 0-1.85.75zm-1.05-2.6a1 1 0 0 0 1.85-.75l-1.56-3.88A1 1 0 1 0 20 5zm21.57 48.05a1 1 0 0 0-1.85.75l1 2.51a1 1 0 1 0 1.85-.75zm-1.34-3.32-1-2.51a1 1 0 0 0-1.85.75l1 2.51a1 1 0 0 0 1.85-.75zm-19.38.93a1 1 0 0 0-1.31.53l-1.77 4.16a1 1 0 1 0 1.85.77l1.8-4.15a1 1 0 0 0-.57-1.31zm1.76-4.13a1 1 0 0 0-1.31.53l-.51 1.2a1 1 0 1 0 1.84.78l.51-1.2a1 1 0 0 0-.53-1.31zm15.62-36.82a1 1 0 0 0 1.31-.53l1.79-4.23a1 1 0 0 0-1.84-.78l-1.79 4.23a1 1 0 0 0 .53 1.31zm2.91-6.83A1 1 0 0 0 44 6.23l.62-1.45A1 1 0 1 0 42.8 4l-.62 1.45a1 1 0 0 0 .54 1.31zM8.48 23.1l3.8 1.61a1 1 0 1 0 .78-1.84l-3.8-1.61a1 1 0 1 0-.78 1.84zm-3.65-1.54.79.33A1 1 0 0 0 6.4 20l-.79-.33a1 1 0 1 0-.78 1.84zM60 42.8l-1.11-.47a1 1 0 1 0-.78 1.84l1.11.47A1 1 0 0 0 60 42.8zm-4-1.68-1.45-.62a1 1 0 0 0-.78 1.84l1.45.62a1 1 0 0 0 .78-1.84zm-3.93-1.69-.35-.15a1 1 0 1 0-.78 1.84l.35.15a1 1 0 1 0 .78-1.84z"/><path d="M32 14a18 18 0 1 0 18 18 18 18 0 0 0-18-18Zm0 32a14 14 0 1 1 14-14 14 14 0 0 1-14 14Z"/><path d="M23.18 33.8a1 1 0 0 0-2 .4 11 11 0 0 0 4.18 6.6 1 1 0 1 0 1.2-1.6 9 9 0 0 1-3.38-5.4zM31.1 41a8.92 8.92 0 0 1-1.8-.37 1 1 0 0 0-.6 1.91 11 11 0 0 0 2.2.45h.1a1 1 0 0 0 .1-2z"/></g></svg>