<svg xmlns="http://www.w3.org/2000/svg" fill-rule="evenodd" clip-rule="evenodd" image-rendering="optimizeQuality" shape-rendering="geometricPrecision" text-rendering="geometricPrecision" viewBox="0 0 1707 1710"><path fill="#103369" fill-rule="nonzero" d="M1371 784l-1071 0c-11 0-20 9-20 20 0 11 9 20 20 20l1071 0c67 0 128-27 171-71 44-43 71-104 71-171 0-67-27-128-71-172-43-43-104-71-171-71-67 0-128 28-172 71-43 44-71 105-71 172 0 11 9 20 20 20 11 0 20-9 20-20 0-56 23-107 60-143 36-37 87-60 143-60 56 0 106 23 143 60 37 36 59 87 59 143 0 56-22 106-59 143-37 37-87 59-143 59zM830 1028l-673 0c-12 0-20 9-20 20 0 11 8 20 20 20l673 0c34 0 64 13 85 35 22 22 36 52 36 85 0 33-14 63-36 85-21 21-51 35-85 35-33 0-63-14-84-35-22-22-36-52-36-85 0-11-9-20-20-20-11 0-20 9-20 20 0 44 18 84 47 113 29 29 69 47 113 47 45 0 85-18 114-47 29-29 47-69 47-113 0-44-18-84-47-113-29-29-69-47-114-47z"/><path fill="#103369" fill-rule="nonzero" d="M670 421c0,11 9,20 20,20 11,0 20,-9 20,-20 0,-33 14,-63 36,-85 21,-22 51,-35 84,-35 34,0 64,13 85,35 22,22 36,52 36,85 0,33 -14,63 -36,85 -21,22 -51,35 -85,35l-673 0c-12,0 -20,9 -20,20 0,11 8,20 20,20l673 0c45,0 85,-18 114,-47 29,-29 47,-69 47,-113 0,-44 -18,-84 -47,-113 -29,-29 -69,-47 -114,-47 -44,0 -84,18 -113,47 -29,29 -47,69 -47,113z"/><path fill="#ef4d30" fill-rule="nonzero" d="M1295 989c32 0 64 9 92 25 9 4 11 12 11 20 0 32-8 64-24 92-33 58-95 93-162 93-33 0-65-9-93-25-10-6-11-14-10-24 0-31 9-61 24-88 33-58 95-94 162-93zM437 259c35 0 63 29 63 64 0 34-28 63-63 63-35 0-63-29-63-63 0-35 28-64 63-64zM424 1313c-22 0-44-6-62-17-10-5-11-12-11-21 0-21 6-42 16-60 11-19 26-35 46-47 20-11 42-17 64-17 22 1 43 6 62 17 10 5 11 13 11 23-1 20-6 41-16 59-23 39-65 63-110 63z"/><path fill="#103369" d="M284 460c0-56-18-90-43-106-14-10-29-14-45-14-6-1-12 0-18 1-2-3-4-6-7-9-13-15-30-28-54-33-27-7-62-4-105 13-10 5-15 16-10 27 4 10 15 15 26 10 34-14 60-16 80-12 12 3 22 9 29 17-28 14-51 38-54 59-2 14 3 26 12 35 6 7 15 12 23 15 9 3 19 4 28 3 15-2 30-9 39-24 9-16 13-37 9-59l0-4 1 1c9 0 17 2 24 7 15 10 25 32 25 73 0 11 9 20 20 20 11 0 20-9 20-20zM1422 876c0 57 18 90 44 107 13 9 29 13 45 14 6 0 12 0 18-1 2 3 4 6 6 8 13 16 31 28 54 34 28 6 63 4 105-14 11-4 15-16 11-26-4-10-16-15-26-11-34 14-60 17-80 12-12-3-22-9-29-16 28-15 50-38 54-60 2-14-3-26-12-35-7-6-15-11-24-14-8-3-18-4-27-3-15 1-30 9-39 24-10 15-13 37-10 58l1 4-1 0c-9 0-17-2-24-7-15-10-26-33-26-74 0-11-9-20-20-20-11 0-20 9-20 20zM1319 1307c0 56-18 89-43 106-14 10-30 14-46 14-6 0-12 0-18-1-2 3-4 6-6 9-13 15-31 28-54 33-28 7-62 4-105-13-10-5-15-16-11-27 4-10 16-15 26-10 34 14 61 16 80 11 13-2 22-8 30-16-29-14-51-38-54-59-2-14 3-26 12-35 6-7 14-12 23-15 9-3 18-4 28-3 15 2 29 9 38 24 10 15 13 37 10 59l-1 3 1 0c9 0 17-2 24-7 15-10 26-32 26-73 0-11 9-20 20-20 11 0 20 9 20 20z"/><path fill="#ef4d30" fill-rule="nonzero" d="M1105 238c35 0 63 29 63 64 0 34-28 63-63 63-35 0-63-29-63-63 0-35 28-64 63-64zM171 813c35 0 63 28 63 63 0 35-28 63-63 63-35 0-63-28-63-63 0-35 28-63 63-63zM956 738c-22 0-44-6-63-17-9-4-11-12-11-21 1-21 6-42 17-60 10-19 26-35 46-47 20-11 42-16 63-16 22 0 44 6 63 17 10 4 11 12 11 22-1 20-7 41-17 59-22 39-64 63-109 63z"/></svg>